<svg width="64" height="64" viewBox="0 0 64 64" xmlns="http://www.w3.org/2000/svg"><title>logo</title><path d="M13.76,5.52 L26.432,5.52 L12.288,38.48 C11.0506605,41.2960141 10.0480038,43.599991 9.28,45.392 C8.51199616,47.184009 7.9146688,48.6346611 7.488,49.744 C7.0613312,50.8533389 6.76266752,51.6959971 6.592,52.272 C6.42133248,52.8480029 6.336,53.3279981 6.336,53.712 C6.336,54.053335 6.47466528,54.3306656 6.752,54.544 C7.02933472,54.7573344 7.33866496,54.864 7.68,54.864 C7.93600128,54.864 8.23466496,54.8000006 8.576,54.672 C8.91733504,54.5439994 9.354664,54.2986685 9.888,53.936 C10.421336,53.5733315 11.050663,53.0613366 11.776,52.4 C12.501337,51.7386634 13.3759949,50.8533389 14.4,49.744 L15.808,50.512 C13.6319891,53.1573466 11.4240112,55.1733264 9.184,56.56 C6.9439888,57.9466736 4.94934208,58.64 3.2,58.64 C2.17599488,58.64 1.37600288,58.2880035 0.8,57.584 C0.22399712,56.8799965 -0.064,55.9093395 -0.064,54.672 C-0.064,54.2879981 -0.02133376,53.8613357 0.064,53.392 C0.14933376,52.9226643 0.30933216,52.3040038 0.544,51.536 C0.77866784,50.7679962 1.13066432,49.7866726 1.6,48.592 C2.06933568,47.3973274 2.6773296,45.8826758 3.424,44.048 C4.1706704,42.2133242 5.077328,40.0053462 6.144,37.424 C7.210672,34.8426538 8.4906592,31.7600179 9.984,28.176 L18.752,7.248 L13.888,6.48 L13.76,5.52 Z M44.992,25.424 C43.7119936,25.424 42.3786736,25.8399958 40.992,26.672 C39.6053264,27.5040042 38.2613398,28.623993 36.96,30.032 C35.6586602,31.440007 34.4106726,33.0506576 33.216,34.864 C32.0213274,36.6773424 30.986671,38.554657 30.112,40.496 C29.237329,42.437343 28.533336,44.378657 28,46.32 C27.466664,48.261343 27.2,50.0426586 27.2,51.664 C27.2,53.2853414 27.4879971,54.4799962 28.064,55.248 C28.6400029,56.0160038 29.6106598,56.4 30.976,56.4 C34.6026848,56.4 39.2106387,53.5413619 44.8,47.824 L46.208,48.656 C43.3919859,51.9413498 40.554681,54.4266582 37.696,56.112 C34.837319,57.7973418 32.0000141,58.64 29.184,58.64 C26.4106528,58.64 24.3306736,57.8080083 22.944,56.144 C21.5573264,54.4799917 20.864,52.048016 20.864,48.848 C20.9066669,45.3493158 21.8559907,41.8506842 23.712,38.352 C25.5680093,34.8533158 28.1813165,31.7813466 31.552,29.136 C33.8560115,27.343991 36.2666541,25.9466717 38.784,24.944 C41.3013459,23.9413283 43.626656,23.44 45.76,23.44 C46.8693389,23.44 47.8933286,23.5893318 48.832,23.888 C49.7706714,24.1866682 50.5919965,24.602664 51.296,25.136 C52.0000035,25.669336 52.5439981,26.2879965 52.928,26.992 C53.3120019,27.6960035 53.504,28.4533293 53.504,29.264 C53.504,30.0320038 53.2480026,30.6506643 52.736,31.12 C52.2239974,31.5893357 51.5413376,31.824 50.688,31.824 C49.0239917,31.824 48.0426682,30.8000102 47.744,28.752 C47.5306656,27.5573274 47.2213354,26.7040026 46.816,26.192 C46.4106646,25.6799974 45.8026707,25.424 44.992,25.424 L44.992,25.424 Z M55.552,49.232 C56.8320064,49.232 57.9519952,49.6266627 58.912,50.416 C59.8720048,51.2053373 60.352,52.1973274 60.352,53.392 C60.352,54.0746701 60.1920016,54.7253302 59.872,55.344 C59.5519984,55.9626698 59.125336,56.5173309 58.592,57.008 C58.058664,57.4986691 57.4506701,57.8933318 56.768,58.192 C56.0853299,58.4906682 55.4026701,58.64 54.72,58.64 C53.2693261,58.64 52.1280042,58.2453373 51.296,57.456 C50.4639958,56.6666627 50.048,55.6320064 50.048,54.352 C50.048,53.6693299 50.1973318,53.0080032 50.496,52.368 C50.7946682,51.7279968 51.1999974,51.1840022 51.712,50.736 C52.2240026,50.2879978 52.8106634,49.9253347 53.472,49.648 C54.1333366,49.3706653 54.826663,49.232 55.552,49.232 L55.552,49.232 Z" fill="#e71f3c" fill-rule="evenodd"/></svg>
